<svg width="57" height="56" viewBox="0 0 57 56" fill="none" xmlns="http://www.w3.org/2000/svg">
<path fill-rule="evenodd" clip-rule="evenodd" d="M28.4824 55.8334C43.9008 55.8334 56.3991 43.3351 56.3991 27.9167C56.3991 12.4984 43.9008 8.01086e-05 28.4824 8.01086e-05C13.064 8.01086e-05 0.565739 12.4984 0.565739 27.9167C0.565739 43.3351 13.064 55.8334 28.4824 55.8334Z" fill="#D8D7CF"/>
<path fill-rule="evenodd" clip-rule="evenodd" d="M28.5 53.0418C42.376 53.0418 53.625 41.7928 53.625 27.9168C53.625 14.0408 42.376 2.79179 28.5 2.79179C14.624 2.79179 3.37498 14.0408 3.37498 27.9168C3.37498 41.7928 14.624 53.0418 28.5 53.0418ZM28.5 55.8335C43.9184 55.8335 56.4166 43.3352 56.4166 27.9168C56.4166 12.4984 43.9184 0.00012207 28.5 0.00012207C13.0816 0.00012207 0.583313 12.4984 0.583313 27.9168C0.583313 43.3352 13.0816 55.8335 28.5 55.8335Z" fill="#040404"/>
<rect x="17" y="21.4167" width="20" height="20" fill="#A0A0A0"/>
<path d="M24.5 12.4167L16 14.9167L14.5 16.9167L17 21.4167H27L25.5 27.9167L29 30.9167L32.5 28.4167L31.5 21.4167H36.5L39 17.4167L37 13.9167H32.5L24.5 12.4167Z" fill="#FEFEFE"/>
<path d="M24.8261 10.4167C23.0925 10.4167 21.6136 11.217 20.4783 12.35C19.8591 12.1135 19.272 11.7917 18.5652 11.7917C15.5043 11.7917 13 14.2667 13 17.2917C13 18.7039 13.5816 19.9661 14.479 20.9437C14.4219 21.0951 14.3922 21.2552 14.3913 21.4167V39.2917C14.3913 41.5536 16.2765 43.4167 18.5652 43.4167H35.2609C37.5496 43.4167 39.4348 41.5536 39.4348 39.2917V36.5417H40.8261C43.1148 36.5417 45 34.6786 45 32.4167V26.9167C45 24.6549 43.1148 22.7917 40.8261 22.7917H39.4348V21.1582C39.4458 21.0586 39.4458 20.9581 39.4348 20.8585C40.2835 19.8919 40.8261 18.6612 40.8261 17.2917C40.8261 14.2667 38.3217 11.7917 35.2609 11.7917C34.223 11.7917 33.3047 12.1575 32.4783 12.6511C31.6518 12.1561 30.7336 11.7917 29.6957 11.7917C29.3367 11.7917 29.0557 11.899 28.7384 11.9636C27.6588 11.0671 26.3496 10.4167 24.8261 10.4167ZM24.8261 13.1667C25.8473 13.1667 26.7447 13.6232 27.3917 14.3272L27.9997 14.9707L28.8692 14.7136C29.1809 14.6119 29.4313 14.5417 29.6957 14.5417C30.408 14.5417 31.0591 14.8209 31.5656 15.2719L32.4783 16.0886L33.391 15.2719C33.9004 14.8067 34.5673 14.5463 35.2609 14.5417C36.815 14.5417 38.0435 15.7559 38.0435 17.2917C38.0435 18.8276 36.815 20.0417 35.2609 20.0417C33.7165 20.0417 31.4779 19.3969 31.4779 19.3969L29.6957 18.8812V20.7292C29.6957 22.657 30.113 24.1296 30.479 25.2406C30.8421 26.353 31.087 27.0611 31.087 27.6042C31.087 28.7592 30.1687 29.6667 29 29.6667C27.8313 29.6667 26.913 28.7592 26.913 27.6042C26.913 27.0611 27.1579 26.3104 27.5224 25.198C27.8856 24.0856 28.3043 22.6474 28.3043 20.7292V18.2804L26.2174 19.5687C26.2174 19.5687 25.967 19.6925 25.6525 19.8272C25.3892 19.9384 25.1107 20.0107 24.8261 20.0417C23.9567 20.0417 23.1188 19.7199 22.4776 19.1397L21.4786 18.2377L20.5659 19.1824C20.1844 19.5813 19.6904 19.8577 19.1479 19.9756C18.6055 20.0936 18.0397 20.0477 17.524 19.8438C17.0083 19.64 16.5665 19.2877 16.256 18.8326C15.9455 18.3775 15.7805 17.8406 15.7826 17.2917C15.7826 15.7559 17.0111 14.5417 18.5652 14.5417C19.1301 14.5417 19.6407 14.7301 20.0873 15.0147L21.217 15.7022L22.0003 14.627C22.3161 14.1752 22.7383 13.8062 23.2306 13.5518C23.7229 13.2974 24.2705 13.1652 24.8261 13.1667ZM21.608 21.7605C22.5597 22.3462 23.6254 22.7917 24.8261 22.7917C24.9722 22.7917 25.0376 22.723 25.1739 22.7051C25.0598 23.2372 25.0654 23.9192 24.9123 24.3826C24.5812 25.3919 24.1304 26.3585 24.1304 27.6042C24.1304 30.247 26.3259 32.4167 29 32.4167C31.6741 32.4167 33.8696 30.247 33.8696 27.6042C33.8696 26.3585 33.4188 25.3864 33.0863 24.3812C32.9082 23.834 32.8581 23.0612 32.7384 22.4054C33.6303 22.6089 34.0323 22.7917 35.2609 22.7917C35.7395 22.7917 36.207 22.69 36.6522 22.5772V23.7377C36.5688 24.0033 36.5688 24.2876 36.6522 24.5531V34.9082C36.6134 35.0928 36.6134 35.2833 36.6522 35.4679V39.2917C36.6522 40.07 36.0483 40.6667 35.2609 40.6667H18.5652C17.7777 40.6667 17.1739 40.07 17.1739 39.2917V22.5772C17.6191 22.69 18.0866 22.7917 18.5652 22.7917C19.7117 22.7917 20.7203 22.3517 21.608 21.7605ZM39.4348 25.5417H40.8261C41.6136 25.5417 42.2174 26.1385 42.2174 26.9167V32.4167C42.2174 33.195 41.6136 33.7917 40.8261 33.7917H39.4348V25.5417Z" fill="#040404"/>
<path d="M9 9.91675L11 7.91675L47.5 44.9167L45.5 46.9167L9 9.91675Z" fill="#040404"/>
</svg>
