<svg width="57" height="56" viewBox="0 0 57 56" fill="none" xmlns="http://www.w3.org/2000/svg">
<path fill-rule="evenodd" clip-rule="evenodd" d="M28.4824 55.8334C43.9008 55.8334 56.3991 43.3351 56.3991 27.9167C56.3991 12.4984 43.9008 8.01086e-05 28.4824 8.01086e-05C13.064 8.01086e-05 0.565739 12.4984 0.565739 27.9167C0.565739 43.3351 13.064 55.8334 28.4824 55.8334Z" fill="#FFF4E2"/>
<path fill-rule="evenodd" clip-rule="evenodd" d="M28.5 53.0418C42.376 53.0418 53.625 41.7928 53.625 27.9168C53.625 14.0408 42.376 2.79179 28.5 2.79179C14.624 2.79179 3.37498 14.0408 3.37498 27.9168C3.37498 41.7928 14.624 53.0418 28.5 53.0418ZM28.5 55.8335C43.9184 55.8335 56.4166 43.3352 56.4166 27.9168C56.4166 12.4984 43.9184 0.00012207 28.5 0.00012207C13.0816 0.00012207 0.583313 12.4984 0.583313 27.9168C0.583313 43.3352 13.0816 55.8335 28.5 55.8335Z" fill="#040404"/>
<circle cx="35.5" cy="18.9167" r="2.5" fill="#FF7C66"/>
<circle cx="22.5" cy="27.9167" r="2.5" fill="#669EFF"/>
<circle cx="31.5" cy="36.9167" r="2.5" fill="#34BE47"/>
<path d="M42.2188 27.9167H25.2306M19.2343 27.9167H16.7812M19.2343 27.9167C19.2343 27.1217 19.5501 26.3593 20.1122 25.7972C20.6743 25.235 21.4368 24.9192 22.2318 24.9192C23.0267 24.9192 23.7892 25.235 24.3513 25.7972C24.9134 26.3593 25.2293 27.1217 25.2293 27.9167C25.2293 28.7117 24.9134 29.4741 24.3513 30.0363C23.7892 30.5984 23.0267 30.9142 22.2318 30.9142C21.4368 30.9142 20.6743 30.5984 20.1122 30.0363C19.5501 29.4741 19.2343 28.7117 19.2343 27.9167ZM42.2188 37.0013H34.3153M34.3153 37.0013C34.3153 37.7965 33.9987 38.5598 33.4364 39.1221C32.8741 39.6843 32.1115 40.0002 31.3164 40.0002C30.5214 40.0002 29.759 39.683 29.1968 39.1209C28.6347 38.5588 28.3189 37.7963 28.3189 37.0013M34.3153 37.0013C34.3153 36.2062 33.9987 35.4443 33.4364 34.882C32.8741 34.3197 32.1115 34.0038 31.3164 34.0038C30.5214 34.0038 29.759 34.3197 29.1968 34.8818C28.6347 35.4439 28.3189 36.2064 28.3189 37.0013M28.3189 37.0013H16.7812M42.2188 18.8321H37.9494M31.953 18.8321H16.7812M31.953 18.8321C31.953 18.0371 32.2688 17.2747 32.8309 16.7125C33.3931 16.1504 34.1555 15.8346 34.9505 15.8346C35.3441 15.8346 35.7339 15.9121 36.0976 16.0628C36.4613 16.2134 36.7917 16.4342 37.0701 16.7125C37.3484 16.9909 37.5692 17.3213 37.7198 17.685C37.8705 18.0487 37.948 18.4385 37.948 18.8321C37.948 19.2257 37.8705 19.6155 37.7198 19.9792C37.5692 20.3429 37.3484 20.6733 37.0701 20.9516C36.7917 21.23 36.4613 21.4508 36.0976 21.6014C35.7339 21.7521 35.3441 21.8296 34.9505 21.8296C34.1555 21.8296 33.3931 21.5138 32.8309 20.9516C32.2688 20.3895 31.953 19.6271 31.953 18.8321Z" stroke="#040404" stroke-width="2.5" stroke-miterlimit="10" stroke-linecap="round"/>
</svg>
