<svg width="56" height="56" viewBox="0 0 56 56" fill="none" xmlns="http://www.w3.org/2000/svg">
<path fill-rule="evenodd" clip-rule="evenodd" d="M27.9167 53.0418C41.7926 53.0418 53.0417 41.7928 53.0417 27.9168C53.0417 14.0408 41.7926 2.79179 27.9167 2.79179C14.0407 2.79179 2.79167 14.0408 2.79167 27.9168C2.79167 41.7928 14.0407 53.0418 27.9167 53.0418ZM27.9167 55.8335C43.335 55.8335 55.8333 43.3352 55.8333 27.9168C55.8333 12.4984 43.335 0.00012207 27.9167 0.00012207C12.4983 0.00012207 0 12.4984 0 27.9168C0 43.3352 12.4983 55.8335 27.9167 55.8335Z" fill="#040404"/>
<path fill-rule="evenodd" clip-rule="evenodd" d="M27.9167 53.0417C41.7927 53.0417 53.0417 41.7927 53.0417 27.9167C53.0417 14.0408 41.7927 2.79175 27.9167 2.79175C14.0407 2.79175 2.79167 14.0408 2.79167 27.9167C2.79167 41.7927 14.0407 53.0417 27.9167 53.0417Z" fill="#FFF4E2"/>
<path d="M15.6387 26.5152C15.2297 26.9261 15 27.4824 15 28.0622C15 28.642 15.2297 29.1983 15.6387 29.6092L24.3887 38.3592C24.5919 38.5624 24.8331 38.7235 25.0985 38.8335C25.3639 38.9434 25.6484 39 25.9357 39C26.516 39 27.0725 38.7695 27.4827 38.3592C27.893 37.9489 28.1235 37.3924 28.1235 36.8122C28.1235 36.232 27.893 35.6755 27.4827 35.2652L22.4672 30.2497L38.1857 30.2497C38.7659 30.2497 39.3223 30.0192 39.7325 29.609C40.1428 29.1988 40.3732 28.6424 40.3732 28.0622C40.3732 27.482 40.1428 26.9256 39.7325 26.5154C39.3223 26.1052 38.7659 25.8747 38.1857 25.8747L22.4672 25.8747L27.4827 20.8592C27.6859 20.6561 27.847 20.4149 27.957 20.1494C28.0669 19.884 28.1235 19.5995 28.1235 19.3122C28.1235 19.0249 28.0669 18.7404 27.957 18.475C27.847 18.2095 27.6859 17.9684 27.4827 17.7652C27.2796 17.5621 27.0384 17.4009 26.773 17.291C26.5075 17.181 26.223 17.1244 25.9357 17.1244C25.6484 17.1244 25.3639 17.181 25.0985 17.291C24.8331 17.4009 24.5919 17.5621 24.3887 17.7652L15.6387 26.5152Z" fill="black"/>
</svg>
