<svg width="55" height="53" viewBox="0 0 55 53" fill="none" xmlns="http://www.w3.org/2000/svg">
<rect x="1.25" y="1.25" width="52.5" height="50.5" rx="2.75" fill="#FFF4E2" stroke="#040404" stroke-width="2.5"/>
<path d="M17.2138 32.1071C16.4406 32.1071 15.6992 32.4142 15.1525 32.9609C14.6058 33.5076 14.2987 34.249 14.2987 35.0222C14.2987 36.1819 14.7594 37.2941 15.5794 38.1141C16.3994 38.9341 17.5116 39.3948 18.6713 39.3948H36.162C37.3217 39.3948 38.4339 38.9341 39.2539 38.1141C40.074 37.2941 40.5346 36.1819 40.5346 35.0222C40.5346 34.249 40.2275 33.5076 39.6808 32.9609C39.1341 32.4142 38.3927 32.1071 37.6195 32.1071" fill="#F8BA3D"/>
<path d="M17.2138 32.1071C16.4406 32.1071 15.6992 32.4142 15.1525 32.9609C14.6058 33.5076 14.2987 34.249 14.2987 35.0222C14.2987 36.1819 14.7594 37.2941 15.5794 38.1141C16.3994 38.9341 17.5116 39.3948 18.6713 39.3948H36.162C37.3217 39.3948 38.4339 38.9341 39.2539 38.1141C40.074 37.2941 40.5346 36.1819 40.5346 35.0222C40.5346 34.249 40.2275 33.5076 39.6808 32.9609C39.1341 32.4142 38.3927 32.1071 37.6195 32.1071H17.2138Z" stroke="#040404" stroke-width="2.5" stroke-linecap="round" stroke-linejoin="round"/>
<path d="M11.8538 31.2533C12.4005 31.7999 13.142 32.1071 13.9151 32.1071H40.9182C41.6913 32.1071 42.4328 31.7999 42.9795 31.2533C43.5262 30.7066 43.8333 29.9651 43.8333 29.192C43.8333 28.4188 43.5262 27.6774 42.9795 27.1307C42.4328 26.584 41.6913 26.2769 40.9182 26.2769H13.9151C13.142 26.2769 12.4005 26.584 11.8538 27.1307C11.3071 27.6774 11 28.4188 11 29.192C11 29.9651 11.3071 30.7066 11.8538 31.2533Z" fill="#D38A0C" stroke="#040404" stroke-width="2.5" stroke-linecap="round" stroke-linejoin="round"/>
<path d="M20.5685 26.2769L29.5033 32.9816C30.1218 33.4455 30.8992 33.6447 31.6646 33.5353C32.0435 33.4812 32.4081 33.3529 32.7375 33.1579C33.067 32.9628 33.3547 32.7048 33.5844 32.3986L38.1757 26.2769" fill="#FFEE36"/>
<path d="M20.5685 26.2769L29.5033 32.9816C30.1218 33.4455 30.8992 33.6447 31.6646 33.5353C32.0435 33.4812 32.4081 33.3529 32.7375 33.1579C33.067 32.9628 33.3547 32.7048 33.5844 32.3986L38.1757 26.2769H20.5685Z" stroke="#040404" stroke-width="2.5" stroke-linecap="round" stroke-linejoin="round"/>
<path d="M17.2138 26.2769C16.4406 26.2769 15.6992 25.9697 15.1525 25.423C14.6058 24.8764 14.2987 24.1349 14.2987 23.3618C14.2987 21.2138 15.992 18.5828 18.1408 17.0678C20.2897 15.5528 21.7475 15 27.4167 15C32.0195 15 34.5803 15.425 36.6925 17.0678C39.1526 18.9812 40.5346 21.2138 40.5346 23.3618C40.5346 24.1349 40.2275 24.8764 39.6808 25.423C39.1341 25.9697 37.8557 26.2769 37.0825 26.2769" fill="#F8BA3D"/>
<path d="M17.2138 26.2769C16.4406 26.2769 15.6992 25.9697 15.1525 25.423C14.6058 24.8764 14.2987 24.1349 14.2987 23.3618C14.2987 21.2138 15.992 18.5828 18.1408 17.0678C20.2897 15.5528 21.7475 15 27.4167 15C32.0195 15 34.5803 15.425 36.6925 17.0678C39.1526 18.9812 40.5346 21.2138 40.5346 23.3618C40.5346 24.1349 40.2275 24.8764 39.6808 25.423C39.1341 25.9697 37.8557 26.2769 37.0825 26.2769H17.2138Z" stroke="#040404" stroke-width="2.5" stroke-linecap="round" stroke-linejoin="round"/>
<circle cx="22.3536" cy="18.4521" r="0.46028" fill="#040404"/>
<circle cx="25.1152" cy="20.2933" r="0.46028" fill="#040404"/>
<circle cx="27.8769" cy="18.4521" r="0.46028" fill="#040404"/>
<circle cx="30.6386" cy="20.2933" r="0.46028" fill="#040404"/>
<circle cx="33.4003" cy="18.4521" r="0.46028" fill="#040404"/>
<circle cx="34.3208" cy="22.1344" r="0.46028" fill="#040404"/>
<circle cx="27.8769" cy="22.1344" r="0.46028" fill="#040404"/>
<circle cx="21.433" cy="22.1344" r="0.46028" fill="#040404"/>
</svg>
