<svg width="13" height="17" viewBox="0 0 13 17" fill="none" xmlns="http://www.w3.org/2000/svg">
<path d="M11.7196 2.27332C11.0457 1.5546 10.2367 0.982715 9.34135 0.59205C8.44595 0.201385 7.4826 0 6.50921 0C5.53582 0 4.57247 0.201385 3.67707 0.59205C2.78168 0.982715 1.97271 1.5546 1.29881 2.27332C0.030403 3.96993 -0.359237 6.51484 0.353722 9.12762C1.08326 11.9525 3.03146 13.9969 4.59832 15.6341L5.36102 16.4824C5.50915 16.6433 5.68657 16.7729 5.8833 16.8642C6.08036 16.9537 6.29359 17 6.50921 17C6.72483 17 6.93806 16.9537 7.13512 16.8642C7.3282 16.7745 7.50268 16.6478 7.64912 16.4909L8.42011 15.6426C9.98696 14.0054 11.9352 11.961 12.6647 9.13611C13.3362 6.51484 12.988 3.96993 11.7196 2.27332ZM6.50507 9.27183C5.88617 9.27198 5.28363 9.06848 4.78643 8.69137C4.28923 8.31425 3.92372 7.78353 3.74388 7.17756C3.56404 6.5716 3.5794 5.92252 3.78769 5.32617C3.99599 4.72983 4.38618 4.21783 4.90064 3.86579C5.4151 3.51375 6.02655 3.34032 6.64472 3.37113C7.26288 3.40193 7.85498 3.63533 8.33357 4.03686C8.81217 4.43839 9.15189 4.98676 9.30257 5.60099C9.45325 6.21523 9.4069 6.86276 9.17037 7.44798C8.95188 7.98675 8.58188 8.44694 8.10734 8.77016C7.6328 9.09337 7.07512 9.26503 6.50507 9.26335V9.27183Z" fill="#FF7C66"/>
</svg>
