<svg width="17" height="17" viewBox="0 0 17 17" fill="none" xmlns="http://www.w3.org/2000/svg">
<path d="M2.39543 1.01918C2.57042 0.844131 2.78064 0.708315 3.01215 0.620748C3.24365 0.533181 3.49113 0.495867 3.73817 0.511282C3.9852 0.526698 4.22612 0.594492 4.44494 0.710161C4.66376 0.825831 4.85547 0.986729 5.00734 1.18217L6.80129 3.48812C7.13028 3.91111 7.24627 4.46209 7.11628 4.98208L6.5693 7.17203C6.54121 7.28546 6.54284 7.40422 6.57402 7.51685C6.60519 7.62947 6.66487 7.73216 6.74729 7.81501L9.20421 10.272C9.28716 10.3545 9.39002 10.4143 9.50283 10.4455C9.61565 10.4767 9.73461 10.4782 9.84819 10.4499L12.0371 9.90296C12.2938 9.83917 12.5615 9.83438 12.8203 9.88893C13.079 9.94349 13.322 10.056 13.5311 10.218L15.837 12.0119C16.666 12.6569 16.742 13.8819 16 14.6228L14.966 15.6568C14.2261 16.3968 13.1201 16.7218 12.0891 16.3588C9.44988 15.4314 7.05382 13.9206 5.07934 11.9389C3.09778 9.96471 1.587 7.56899 0.65948 4.93008C0.297492 3.90011 0.622481 2.79313 1.36246 2.05315L2.39543 1.01918Z" fill="#FF7C66"/>
</svg>
