<svg width="146" height="40" viewBox="0 0 146 40" fill="none" xmlns="http://www.w3.org/2000/svg">
<path d="M17.64 37.16C17.48 36.7867 17.3067 36.4667 17.12 36.2C16.7733 35.6667 16.4267 35.1333 16.08 34.6C15.76 34.04 15.4933 33.64 15.28 33.4C14.8533 32.8933 14.96 32.56 15.6 32.4C20.2933 31.0933 24.0133 29.2933 26.76 27C27.2133 26.6267 27.4 26.4 27.32 26.32C27.2667 26.2133 26.9733 26.2133 26.44 26.32C25.9067 26.4267 25.24 26.48 24.44 26.48H23C22.3867 26.48 22.04 26.1733 21.96 25.56C21.6933 23.9333 21.4267 22.6533 21.16 21.72C20.9733 21.1867 21.16 20.92 21.72 20.92H22.76C23.2667 20.92 23.64 20.84 23.88 20.68C24.1467 20.52 24.28 20.1733 24.28 19.64V11.2C24.28 10.5867 24.24 10.28 24.16 10.28C24.1067 10.28 23.9467 10.7867 23.68 11.8C23.0133 14.28 21.96 16.8133 20.52 19.4C20.36 19.72 20.1333 19.88 19.84 19.88C19.5733 19.88 19.2933 19.7867 19 19.6C18.3067 19.1467 17.6533 18.8 17.04 18.56C16.4533 18.32 16.0933 18.1733 15.96 18.12C15.8533 18.0667 15.7333 18.0133 15.6 17.96C15.0933 17.7467 14.9867 17.4133 15.28 16.96C15.5733 16.5067 15.44 16.28 14.88 16.28H13.36C13.04 16.28 12.88 16.44 12.88 16.76C12.88 17.0533 12.9867 17.3067 13.2 17.52C14.88 19.2 16.4667 20.6133 17.96 21.76C18.6 22.2667 18.64 22.8267 18.08 23.44C17.2533 24.2667 16.5733 25.1333 16.04 26.04C15.88 26.28 15.6933 26.4 15.48 26.4C15.2667 26.4 15.08 26.32 14.92 26.16L13.6 24.8C13.12 24.32 12.88 24.4133 12.88 25.08V36.52C12.88 36.92 12.76 37.24 12.52 37.48C12.28 37.72 11.96 37.84 11.56 37.84H8.56C8.16 37.84 7.84 37.72 7.6 37.48C7.36 37.24 7.24 36.92 7.24 36.52V29.4C7.24 28.6267 7.10667 28.24 6.84 28.24C6.6 28.24 6.34667 28.4267 6.08 28.8C5.65333 29.44 5.30667 29.92 5.04 30.24C4.93333 30.4267 4.77333 30.52 4.56 30.52C4.34667 30.52 4.10667 30.3867 3.84 30.12C2.96 29.24 2.29333 28.6533 1.84 28.36C1.41333 28.0667 1.13333 27.8667 1 27.76C0.52 27.44 0.466667 27.0533 0.84 26.6C3.26667 24.0933 5.4 20.72 7.24 16.48V16.28H3.12C2.72 16.28 2.4 16.16 2.16 15.92C1.92 15.68 1.8 15.36 1.8 14.96V12.44C1.8 12.04 1.92 11.72 2.16 11.48C2.4 11.24 2.72 11.12 3.12 11.12H6.12C6.86667 11.12 7.24 10.7333 7.24 9.96V9.92C7.24 9.6 7.13333 9.36 6.92 9.2C6.73333 9.01333 6.48 8.94667 6.16 9L3.96 9.32C3.45333 9.37333 3.13333 9.14666 3 8.64C2.97333 8.50667 2.94667 8.37333 2.92 8.24C2.89333 8.10667 2.82667 7.89333 2.72 7.6C2.42667 6.82666 2.09333 6.05333 1.72 5.28C1.48 4.8 1.62667 4.53333 2.16 4.48C5.28 4.29333 8.4 3.74667 11.52 2.84C12.5333 2.52 13.3067 2.24 13.84 2C14.4 1.76 14.84 1.64 15.16 1.64C15.5067 1.64 15.8267 1.82666 16.12 2.2L17.8 4.6C18.04 4.94666 18.1067 5.28 18 5.6C17.92 5.89333 17.6533 6.12 17.2 6.28C16.1867 6.68 15.0667 7.04 13.84 7.36C13.5467 7.44 13.3067 7.6 13.12 7.84C12.96 8.08 12.88 8.34667 12.88 8.64V9.8C12.88 10.2 13 10.52 13.24 10.76C13.48 11 13.8 11.12 14.2 11.12H15.6C16 11.12 16.32 11.24 16.56 11.48C16.8 11.72 16.92 12.04 16.92 12.44V12.52C16.92 12.9733 16.9733 13.2 17.08 13.2C17.2667 13.2 17.5733 12.5867 18 11.36C18.4533 10.1067 18.76 9.12 18.92 8.4C19.1867 7.49333 19.76 7.14666 20.64 7.36L22.64 7.92C23.1467 8.05333 23.5467 8.01333 23.84 7.8C24.1333 7.56 24.28 7.17333 24.28 6.64V3C24.28 2.6 24.4 2.28 24.64 2.04C24.88 1.8 25.2 1.68 25.6 1.68H28.68C29.08 1.68 29.4 1.8 29.64 2.04C29.88 2.28 30 2.6 30 3V6.08C30 7.01333 30.3467 7.48 31.04 7.48C31.2533 7.48 31.52 7.41333 31.84 7.28L33.24 6.68C33.4533 6.6 33.7067 6.56 34 6.56C34.32 6.56 34.6 6.74667 34.84 7.12C36.36 9.70667 37.6533 12.4667 38.72 15.4C38.8533 15.7733 38.8267 16.12 38.64 16.44C38.48 16.7333 38.2533 16.9333 37.96 17.04C37.6667 17.12 37.4 17.2133 37.16 17.32C36.92 17.4 36.6133 17.5067 36.24 17.64C35.8933 17.7733 35.56 17.92 35.24 18.08C34.9467 18.24 34.6933 18.32 34.48 18.32C34 18.32 33.6533 18.04 33.44 17.48C33.36 17.2667 33.28 17.0533 33.2 16.84C33.12 16.6267 33 16.3333 32.84 15.96C32.68 15.56 32.48 15.08 32.24 14.52C32.0267 13.96 31.8133 13.4667 31.6 13.04C31.4133 12.6133 31.2667 12.2667 31.16 12C30.7867 11.04 30.48 10.56 30.24 10.56C30.08 10.56 30 10.8533 30 11.44V21.88C30 22.3067 29.9733 22.7067 29.92 23.08C29.7867 23.7733 29.92 23.8267 30.32 23.24C31.04 22.2267 31.6267 21.1867 32.08 20.12C32.32 19.5333 32.7067 19.24 33.24 19.24C33.48 19.24 33.7067 19.2933 33.92 19.4L37.04 20.88C37.4133 21.04 37.6533 21.28 37.76 21.6C37.8667 21.92 37.8267 22.2533 37.64 22.6C35.5067 26.6267 32.9333 29.8267 29.92 32.2C27.12 34.44 23.5067 36.28 19.08 37.72C18.4667 37.9333 17.9867 37.7467 17.64 37.16ZM68.76 28.04C68.52 28.3867 68.24 28.56 67.92 28.56C67.6 28.56 67.3067 28.4133 67.04 28.12C66.1067 26.9733 64.9333 25.72 63.52 24.36C63.3333 24.1733 63.1333 24.08 62.92 24.08C62.7067 24.08 62.52 24.2 62.36 24.44C58.4133 28.7067 54.32 31.9467 50.08 34.16C49.84 34.32 49.5333 34.4 49.16 34.4C48.8133 34.4 48.4933 34.2 48.2 33.8L47.28 32.68C46.7733 31.96 46.3733 31.4533 46.08 31.16C45.8133 30.8667 45.68 30.56 45.68 30.24C45.68 29.7867 45.96 29.4133 46.52 29.12C50.68 26.96 54.4 24.0667 57.68 20.44C57.84 20.2267 57.92 20.0267 57.92 19.84C57.92 19.6533 57.8 19.4667 57.56 19.28C56.3867 18.3733 55.4133 17.68 54.64 17.2C54.4 17.0667 54.1333 16.8933 53.84 16.68C53.44 16.44 53.1867 16.1067 53.08 15.68C53.0533 15.6 53.04 15.5067 53.04 15.4C53.04 15.0533 53.2 14.7067 53.52 14.36L55.16 12.48C55.4267 12.1333 55.7467 11.96 56.12 11.96C56.4933 11.96 56.8133 12.04 57.08 12.2C57.3467 12.3333 57.9467 12.68 58.88 13.24C59.8133 13.7733 60.5467 14.2267 61.08 14.6C61.2933 14.7067 61.5067 14.76 61.72 14.76C61.9067 14.76 62.08 14.64 62.24 14.4C63.76 11.8933 64.88 9.52 65.6 7.28C65.84 6.50666 66.3067 6.12 67 6.12C67.2133 6.12 67.4133 6.16 67.6 6.24L70.52 7.24C71.2133 7.48 71.56 7.90666 71.56 8.52C71.56 8.70667 71.52 8.90667 71.44 9.12C70.3467 12.2133 68.88 15.2133 67.04 18.12C66.9067 18.3067 66.84 18.4933 66.84 18.68C66.84 18.8667 66.96 19.0533 67.2 19.24C68.7467 20.4933 70.2 21.8267 71.56 23.24C71.8267 23.5067 71.96 23.8 71.96 24.12C71.96 24.4933 71.76 24.8533 71.36 25.2C70.4267 26.1333 69.7733 26.8133 69.4 27.24L68.76 28.04ZM98.84 14.36C98.5733 14.7333 98.2667 14.92 97.92 14.92C97.5733 14.92 97.2533 14.8 96.96 14.56C96.6667 14.32 96.4133 14.1333 96.2 14C95.9867 13.84 95.7067 13.6533 95.36 13.44C95.0133 13.2267 94.6667 13.0133 94.32 12.8C94 12.56 93.6667 12.3467 93.32 12.16C92.4933 11.7067 92 11.44 91.84 11.36C91.7067 11.28 91.5467 11.2 91.36 11.12C91.0933 10.96 90.92 10.7333 90.84 10.44C90.8133 10.3333 90.8 10.24 90.8 10.16C90.8 9.94667 90.8667 9.73333 91 9.52L92.96 6.52C93.3333 6.04 93.68 5.8 94 5.8C94.3467 5.8 94.7333 5.92 95.16 6.16C96.1467 6.69333 97.08 7.25333 97.96 7.84L99.96 9.2C100.093 9.30667 100.213 9.4 100.32 9.48C100.933 9.82667 101.24 10.24 101.24 10.72C101.24 10.9867 101.147 11.2533 100.96 11.52L98.84 14.36ZM88.8 30.16C88.6133 29.84 88.52 29.56 88.52 29.32C88.52 28.5467 88.9467 28.0533 89.8 27.84C93.08 26.96 96.5867 25.3867 100.32 23.12C103.733 20.9867 106.813 18.6 109.56 15.96C110.653 14.92 111.56 13.9333 112.28 13C112.52 12.68 112.76 12.52 113 12.52C113.4 12.52 113.667 12.76 113.8 13.24C113.88 13.5333 113.973 13.8533 114.08 14.2C114.48 15.24 114.733 15.8933 114.84 16.16C114.973 16.4 115.08 16.6 115.16 16.76C115.24 16.8933 115.333 17.0667 115.44 17.28C115.547 17.4667 115.6 17.7067 115.6 18C115.6 18.32 115.48 18.6267 115.24 18.92C112.6 22.0933 109.133 25.08 104.84 27.88C100.707 30.6267 96.56 32.68 92.4 34.04C92.1867 34.12 91.9867 34.16 91.8 34.16C91.2667 34.16 90.8533 33.8933 90.56 33.36L88.8 30.16ZM93.76 21.6C93.4667 22.08 93.12 22.32 92.72 22.32C92.32 22.32 91.96 22.2267 91.64 22.04C89.64 20.8667 87.96 20.0267 86.6 19.52C86.12 19.3067 85.8133 19 85.68 18.6C85.6267 18.4667 85.6 18.32 85.6 18.16C85.6 17.8933 85.68 17.6 85.84 17.28L87.4 14.52C87.5867 14.1733 87.8667 13.9467 88.24 13.84C88.3467 13.8133 88.4533 13.8 88.56 13.8C88.88 13.8 89.3067 13.9067 89.84 14.12C91.2267 14.7067 92.9333 15.6133 94.96 16.84C95.4667 17.16 95.72 17.5733 95.72 18.08C95.72 18.3733 95.6267 18.6533 95.44 18.92L93.76 21.6Z" fill="#F3F3F3"/>
<path d="M141.5 24C141.5 22.209 139.6 20.988 138 21.692M126.5 24C126.5 22.707 127.469 21.641 128.715 21.499C127.901 19.659 129.626 17.594 131.539 18.017M131.539 18.017C132.015 15.327 135.985 15.327 136.462 18.017C138.418 17.584 140.073 19.683 139.292 21.483M131.539 18.017C132.124 18.1477 132.642 18.4841 133 18.965M140 21L145 15M139 18L141 14M126.911 24H141.09C142.692 24 143.28 24.37 142.88 25.982C142.174 28.825 140.177 29.531 138.331 31.386C137.883 31.836 138.581 32.503 138.581 32.999C138.581 33.933 137.694 34 136.986 34H131.016C130.308 34 129.42 33.933 129.421 33C129.421 32.514 130.098 31.816 129.671 31.386C127.825 29.531 125.828 28.825 125.122 25.982C124.722 24.371 125.309 24 126.911 24Z" stroke="#F3F3F3" stroke-width="2" stroke-linecap="round" stroke-linejoin="round"/>
</svg>
