<svg width="50" height="47" viewBox="0 0 50 47" fill="none" xmlns="http://www.w3.org/2000/svg">
<path d="M12.4096 21.5937C14.3239 21.5937 16.0505 20.5345 17.2333 19.0287C19.0748 16.6746 21.3896 14.7328 24.0281 13.3287C25.7453 12.4167 27.2344 11.0582 27.954 9.25562C28.4593 7.99269 28.7189 6.6449 28.7188 5.28462V3.78125C28.7188 3.30883 28.9064 2.85576 29.2405 2.52172C29.5745 2.18767 30.0276 2 30.5 2C31.9173 2 33.2765 2.563 34.2786 3.56515C35.2808 4.5673 35.8438 5.9265 35.8438 7.34375C35.8438 10.0797 35.2263 12.6709 34.1266 14.9865C33.4949 16.3117 34.3808 18.0312 35.8485 18.0312M35.8485 18.0312H43.2728C45.7095 18.0312 47.8921 19.6795 48.151 22.1044C48.2587 23.1066 48.3125 24.1239 48.3125 25.1562C48.3223 31.6551 46.1015 37.9604 42.0211 43.0186C41.0996 44.1634 39.677 44.75 38.2093 44.75H28.6713C27.5227 44.7507 26.3815 44.5663 25.2916 44.2037L17.8959 41.7337C16.806 41.3712 15.6648 41.1868 14.5163 41.1875H10.6783C10.8762 41.6736 11.0899 42.1502 11.3195 42.6172C11.7874 43.5672 11.1343 44.75 10.0774 44.75H7.92088C5.80951 44.75 3.85251 43.5197 3.23738 41.501C2.41479 38.8012 1.99778 35.9942 2.00001 33.1719C2.00001 29.4835 2.70063 25.9614 3.97363 22.7266C4.70038 20.8884 6.55288 19.8125 8.53126 19.8125H11.0321C12.1531 19.8125 12.8015 21.133 12.2196 22.0925C10.1914 25.4317 9.12151 29.2649 9.12738 33.1719C9.12529 35.9187 9.65266 38.6402 10.6806 41.1875M35.8485 18.0312H30.5" stroke="#040404" stroke-width="3" stroke-linecap="round" stroke-linejoin="round"/>
<path d="M12.6562 21.5L35.6562 18L19.1562 41.5L11.1562 40L9.65625 31L12.6562 21.5Z" fill="#FDE4BB"/>
<path d="M12.4097 21.5937C14.3239 21.5937 16.0505 20.5345 17.2333 19.0287C19.0748 16.6746 21.3896 14.7328 24.0282 13.3287C25.7453 12.4167 27.2344 11.0582 27.954 9.25562C28.4593 7.99269 28.7189 6.6449 28.7188 5.28462V3.78125C28.7188 3.30883 28.9064 2.85576 29.2405 2.52172C29.5745 2.18767 30.0276 2 30.5 2C31.9173 2 33.2765 2.563 34.2786 3.56515C35.2808 4.5673 35.8438 5.9265 35.8438 7.34375C35.8438 10.0797 35.2263 12.6709 34.1267 14.9865C33.4949 16.3117 34.3808 18.0312 35.8485 18.0312M35.8485 18.0312H43.2728C45.7095 18.0312 47.8921 19.6795 48.151 22.1044C48.2587 23.1066 48.3125 24.1239 48.3125 25.1562C48.3223 31.6551 46.1015 37.9604 42.0212 43.0186C41.0997 44.1634 39.677 44.75 38.2093 44.75H28.6713C27.5227 44.7507 26.3815 44.5662 25.2917 44.2037L17.8959 41.7337C16.806 41.3712 15.6649 41.1868 14.5163 41.1875H10.6783M35.8485 18.0312H30.5Z" fill="#FDE4BB"/>
<path d="M35.8485 18.0312C34.3808 18.0312 33.4949 16.3117 34.1267 14.9865C35.2263 12.6709 35.8438 10.0797 35.8438 7.34375C35.8438 5.9265 35.2808 4.5673 34.2786 3.56515C33.2765 2.563 31.9173 2 30.5 2C30.0276 2 29.5745 2.18767 29.2405 2.52172C28.9064 2.85576 28.7188 3.30883 28.7188 3.78125V5.28462C28.7189 6.6449 28.4593 7.99269 27.954 9.25562C27.2344 11.0582 25.7453 12.4167 24.0282 13.3287C21.3896 14.7328 19.0748 16.6746 17.2333 19.0287C16.0505 20.5345 14.3239 21.5937 12.4097 21.5937L12.2197 22.0925C10.1914 25.4317 9.12153 29.2649 9.1274 33.1719C9.12531 35.9187 9.65268 38.6402 10.6807 41.1875M35.8485 18.0312H43.2728C45.7095 18.0312 47.8921 19.6795 48.151 22.1044C48.2587 23.1066 48.3125 24.1239 48.3125 25.1562C48.3223 31.6551 46.1015 37.9604 42.0212 43.0186C41.0997 44.1634 39.677 44.75 38.2093 44.75H28.6713C27.5227 44.7507 26.3815 44.5662 25.2917 44.2037L17.8959 41.7337C16.806 41.3712 15.6649 41.1868 14.5163 41.1875H10.6783M35.8485 18.0312H30.5" stroke="#040404" stroke-width="3" stroke-linecap="round" stroke-linejoin="round"/>
<path d="M10.6783 41.1875C10.8762 41.6736 11.0899 42.1502 11.3195 42.6172C11.7874 43.5672 11.1343 44.75 10.0774 44.75H7.92088C5.80951 44.75 3.85251 43.5197 3.23738 41.501C2.41479 38.8012 1.99778 35.9942 2.00001 33.1719C2.00001 29.4835 2.70063 25.9614 3.97363 22.7266C4.70038 20.8884 6.55288 19.8125 8.53126 19.8125H11.0321C12.1531 19.8125 12.8015 21.133 12.2196 22.0925C10.1914 25.4317 9.12151 29.2649 9.12738 33.1719C9.12529 35.9187 9.65266 38.6402 10.6806 41.1875" fill="#34BE47"/>
<path d="M10.6783 41.1875C10.8762 41.6736 11.0899 42.1502 11.3195 42.6172C11.7874 43.5672 11.1343 44.75 10.0774 44.75H7.92088C5.80951 44.75 3.85251 43.5197 3.23738 41.501C2.41479 38.8012 1.99778 35.9942 2.00001 33.1719C2.00001 29.4835 2.70063 25.9614 3.97363 22.7266C4.70038 20.8884 6.55288 19.8125 8.53126 19.8125H11.0321C12.1531 19.8125 12.8015 21.133 12.2196 22.0925C10.1914 25.4317 9.12151 29.2649 9.12738 33.1719C9.12529 35.9187 9.65266 38.6402 10.6806 41.1875" stroke="#040404" stroke-linecap="round" stroke-linejoin="round"/>
</svg>
