<svg width="11" height="40" viewBox="0 0 11 40" fill="none" xmlns="http://www.w3.org/2000/svg">
<path d="M4.85 1.925C4.74 1.925 4.65933 1.96167 4.608 2.035C4.51267 2.18167 4.421 2.431 4.333 2.783C4.245 3.14233 4.157 3.432 4.069 3.652C3.98833 3.872 3.882 4.07 3.75 4.246C3.44933 4.62 3.04233 4.807 2.529 4.807C1.94967 4.807 1.52067 4.56867 1.242 4.092C1.00733 3.696 0.89 3.23033 0.89 2.695C0.89 1.80767 1.121 1.08167 1.583 0.517C1.649 0.436333 1.726 0.396 1.814 0.396C1.902 0.396 1.98267 0.429 2.056 0.495L2.463 0.858C2.551 0.946 2.595 1.03767 2.595 1.133C2.595 1.22833 2.562 1.32 2.496 1.408C2.22467 1.75267 2.089 2.16333 2.089 2.64C2.089 2.926 2.122 3.12033 2.188 3.223C2.26133 3.333 2.36767 3.388 2.507 3.388C2.64633 3.388 2.74533 3.35867 2.804 3.3C2.87 3.24867 2.92133 3.157 2.958 3.025C3.002 2.90033 3.035 2.772 3.057 2.64C3.08633 2.508 3.11933 2.33933 3.156 2.134C3.2 1.92867 3.25867 1.72333 3.332 1.518C3.41267 1.32 3.51533 1.144 3.64 0.99C3.91867 0.674666 4.30733 0.517 4.806 0.517C5.32667 0.517 5.73733 0.729666 6.038 1.155C6.30933 1.529 6.445 2.02767 6.445 2.651C6.445 3.28167 6.28 3.83167 5.95 4.301C5.89133 4.38167 5.818 4.42567 5.73 4.433C5.642 4.44033 5.55767 4.41467 5.477 4.356L5.026 4.004C4.93067 3.938 4.883 3.861 4.883 3.773C4.883 3.69233 4.92333 3.59333 5.004 3.476C5.158 3.234 5.235 2.915 5.235 2.519C5.235 2.123 5.10667 1.925 4.85 1.925ZM1.671 9.92105C1.143 9.47372 0.879 8.82839 0.879 7.98505C0.879 7.61105 0.952333 7.26272 1.099 6.94005C1.24567 6.61739 1.44367 6.34605 1.693 6.12605C2.20633 5.67139 2.859 5.44405 3.651 5.44405C4.45033 5.44405 5.11033 5.67505 5.631 6.13705C6.16633 6.62105 6.434 7.25172 6.434 8.02905C6.434 8.38105 6.37167 8.72572 6.247 9.06305C6.12233 9.40039 5.92067 9.68639 5.642 9.92105C5.56867 9.98705 5.488 10.0127 5.4 9.99805C5.312 9.98339 5.235 9.93572 5.169 9.85505L4.817 9.38205C4.75833 9.30139 4.729 9.20972 4.729 9.10705C4.729 9.01172 4.78767 8.90539 4.905 8.78805C5.08833 8.60472 5.18 8.37739 5.18 8.10605C5.18 7.83472 5.136 7.62572 5.048 7.47905C4.96 7.33239 4.84267 7.21139 4.696 7.11605C4.432 6.94005 4.08367 6.85205 3.651 6.85205C2.97633 6.85205 2.51433 7.06105 2.265 7.47905C2.177 7.63305 2.133 7.83839 2.133 8.09505C2.133 8.35905 2.22833 8.59372 2.419 8.79905C2.52167 8.91639 2.573 9.02272 2.573 9.11805C2.573 9.21339 2.54733 9.29772 2.496 9.37105L2.144 9.85505C2.078 9.93572 2.001 9.98339 1.913 9.99805C1.825 10.0127 1.74433 9.98705 1.671 9.92105ZM1.363 11.1331L5.939 11.1331C6.049 11.1331 6.137 11.1661 6.203 11.2321C6.269 11.2981 6.302 11.3861 6.302 11.4961L6.302 12.0571C6.302 12.2625 6.19567 12.3835 5.983 12.4201L5.95 12.4201C5.83267 12.4275 5.774 12.4531 5.774 12.4971C5.774 12.5411 5.807 12.5961 5.873 12.6621C6.049 12.8088 6.18467 12.9958 6.28 13.2231C6.38267 13.4578 6.434 13.6485 6.434 13.7951C6.434 14.0078 6.42667 14.1655 6.412 14.2681L6.379 14.4001C6.357 14.4881 6.302 14.5321 6.214 14.5321L5.18 14.5321C5.07 14.5321 5.026 14.4735 5.048 14.3561C5.092 14.2241 5.114 13.9858 5.114 13.6411C5.114 13.3038 4.993 13.0325 4.751 12.8271C4.51633 12.6218 4.212 12.5191 3.838 12.5191L1.363 12.5191C1.253 12.5191 1.165 12.4861 1.099 12.4201C1.033 12.3541 0.999999 12.2661 0.999999 12.1561L0.999999 11.4961C1 11.3861 1.033 11.2981 1.099 11.2321C1.165 11.1661 1.253 11.1331 1.363 11.1331ZM0.878999 17.6541C0.878999 17.2507 0.952333 16.8877 1.099 16.5651C1.24567 16.2424 1.44367 15.9711 1.693 15.7511C2.20633 15.2964 2.859 15.0691 3.651 15.0691C4.45033 15.0691 5.11033 15.3001 5.631 15.7621C6.16633 16.2461 6.434 16.8767 6.434 17.6541C6.434 18.4534 6.16267 19.0914 5.62 19.5681C5.114 20.0154 4.45767 20.2391 3.651 20.2391C2.85167 20.2391 2.19167 20.0081 1.671 19.5461C1.143 19.0694 0.878999 18.4387 0.878999 17.6541ZM2.265 17.1041C2.177 17.2581 2.133 17.4414 2.133 17.6541C2.133 17.8741 2.177 18.0574 2.265 18.2041C2.353 18.3581 2.46667 18.4827 2.606 18.5781C2.88467 18.7614 3.233 18.8531 3.651 18.8531C4.34033 18.8531 4.806 18.6404 5.048 18.2151C5.136 18.0611 5.18 17.8741 5.18 17.6541C5.18 17.2581 5.01867 16.9537 4.696 16.7411C4.432 16.5651 4.08367 16.4771 3.651 16.4771C2.97633 16.4771 2.51433 16.6861 2.265 17.1041ZM1.363 21.2523L8.458 21.2523C8.568 21.2523 8.656 21.2853 8.722 21.3513C8.788 21.4173 8.821 21.5053 8.821 21.6153L8.821 22.2753C8.821 22.3853 8.788 22.4733 8.722 22.5393C8.656 22.6053 8.568 22.6383 8.458 22.6383L1.363 22.6383C1.253 22.6383 1.165 22.6053 1.099 22.5393C1.033 22.4733 0.999999 22.3853 0.999999 22.2753L0.999999 21.6153C0.999999 21.5053 1.033 21.4173 1.099 21.3513C1.165 21.2853 1.253 21.2523 1.363 21.2523ZM1.363 23.9163L8.458 23.9163C8.568 23.9163 8.656 23.9493 8.722 24.0153C8.788 24.0813 8.821 24.1693 8.821 24.2793L8.821 24.9393C8.821 25.0493 8.788 25.1373 8.722 25.2033C8.656 25.2693 8.568 25.3023 8.458 25.3023L1.363 25.3023C1.253 25.3023 1.165 25.2693 1.099 25.2033C1.033 25.1373 0.999999 25.0493 0.999999 24.9393L0.999999 24.2793C0.999999 24.1693 1.033 24.0813 1.099 24.0153C1.165 23.9493 1.253 23.9163 1.363 23.9163Z" fill="#040404"/>
<path d="M2 29L2 38L5 34.5161" stroke="#040404" stroke-linecap="round"/>
</svg>
